<svg xmlns="http://www.w3.org/2000/svg" xmlns:xlink="http://www.w3.org/1999/xlink" version="1.1" width="256" height="256" viewBox="0 0 256 256" xml:space="preserve">
<desc>Created with Fabric.js 1.7.22</desc>
<defs>
</defs>
<g transform="translate(128 128) scale(0.72 0.72)" style="">
	<g style="stroke: none; stroke-width: 0; stroke-dasharray: none; stroke-linecap: butt; stroke-linejoin: miter; stroke-miterlimit: 10; fill: none; fill-rule: nonzero; opacity: 1;" transform="translate(-175.05 -175.05000000000004) scale(3.89 3.89)" >
	<path d="M 27.699 65.892 c -3.031 3.204 -3.879 7.226 -2.187 8.207 c 1.566 0.909 5.219 -0.17 7.834 -3.022 c 0.857 -0.935 1.557 -1.948 2.078 -3.03 c 0.104 -0.216 0.201 -0.436 0.291 -0.658 c 0.09 -0.222 0.173 -0.447 0.248 -0.674 c 0.676 -2.045 0.748 -4.304 0.094 -6.725 c -0.139 0.077 -0.277 0.151 -0.412 0.224 l 0.007 0.014 C 35.653 60.228 30.96 62.445 27.699 65.892 z" style="stroke: none; stroke-width: 1; stroke-dasharray: none; stroke-linecap: butt; stroke-linejoin: miter; stroke-miterlimit: 10; fill: rgb(0,0,0); fill-rule: evenodd; opacity: 1;" transform=" matrix(1 0 0 1 0 0) " stroke-linecap="round" />
	<path d="M 45 0 C 20.147 0 0 20.147 0 45 c 0 24.853 20.147 45 45 45 c 24.853 0 45 -20.147 45 -45 C 90 20.147 69.853 0 45 0 z M 59.672 39.9 c -7.801 3.017 -14.251 2.54 -16.901 1.67 c -3.012 -0.989 -4.779 -2.975 -5.209 -4.096 c -0.169 -0.439 -0.461 -1.176 0 -1.432 c 0.283 -0.157 0.396 -0.119 1.153 0.716 c 0.72 0.793 3.612 2.922 9.106 2.306 c 14.42 -1.616 23.105 -12.821 20.361 -18.849 c -1.921 -4.22 -13.037 -6.124 -26.922 0.795 c -16.95 8.446 -17.87 15.41 -18.014 18.054 c -0.398 7.274 8.977 11.101 14.049 16.512 c 0.119 0.127 0.235 0.256 0.348 0.385 c 1.535 -0.571 3.659 -0.892 7.037 -0.951 c 8.203 -0.141 12.836 5.267 12.646 10.101 c -0.149 3.808 -3.645 5.376 -4.295 5.486 c -0.472 0.08 -0.728 0.094 -0.795 -0.276 c -0.047 -0.255 0.122 -0.373 0.676 -0.716 c 0.554 -0.342 2.209 -1.476 2.505 -3.539 c 0.296 -2.063 -1.253 -6.992 -9.146 -7.914 c -2.797 -0.327 -4.999 -0.104 -6.887 0.395 c 1.369 3.018 1.631 9.084 -1.519 13.783 c -3.264 4.868 -9.337 7.83 -15.255 6.183 c -1.91 -0.531 -4.795 -4.479 -2.306 -9.981 c 2.359 -5.215 12.439 -10.316 13.816 -10.994 v -0.024 c -4.67 -4.021 -16.032 -9.441 -17.634 -17.733 c -0.454 -2.35 0.648 -7.974 7.556 -14.435 c 5.81 -5.434 13.89 -9.596 21.354 -12.248 c 12.542 -4.456 25.794 -1.828 27.832 6.164 C 75.231 27.119 68.409 36.52 59.672 39.9 z" style="stroke: none; stroke-width: 1; stroke-dasharray: none; stroke-linecap: butt; stroke-linejoin: miter; stroke-miterlimit: 10; fill: rgb(0,0,0); fill-rule: evenodd; opacity: 1;" transform=" matrix(1 0 0 1 0 0) " stroke-linecap="round" />
</g>
</g>
</svg>